{
  "accessors": [
    {
      "bufferView": 2,
      "componentType": 5126,
      "count": 65532,
      "max": [
        2.2027032375335693,
        -5.771236419677734,
        1.454206943511963
      ],
      "min": [
        -2.647202491760254,
        -10.705915451049805,
        -3.0633788108825684
      ],
      "type": "VEC3"
    },
    {
      "bufferView": 2,
      "byteOffset": 786384,
      "componentType": 5126,
      "count": 65532,
      "max": [
        0.9999774694442749,
        0.9999778270721436,
        0.9999818205833435
      ],
      "min": [
        -0.9999947547912598,
        -1.0,
        -0.9999832510948181
      ],
      "type": "VEC3"
    },
    {
      "bufferView": 1,
      "componentType": 5126,
      "count": 65532,
      "max": [
        0.9939438700675964,
        0.9994275569915771
      ],
      "min": [
        0.00021282400120981038,
        0.0038719340227544308
      ],
      "type": "VEC2"
    },
    {
      "bufferView": 0,
      "componentType": 5125,
      "count": 306957,
      "type": "SCALAR"
    },
    {
      "bufferView": 2,
      "byteOffset": 1572768,
      "componentType": 5126,
      "count": 65532,
      "max": [
        4.146617889404297,
        -4.427709579467773,
        2.7454214096069336
      ],
      "min": [
        -2.7979419231414795,
        -10.859540939331055,
        -1.9717564582824707
      ],
      "type": "VEC3"
    },
    {
      "bufferView": 2,
      "byteOffset": 2359152,
      "componentType": 5126,
      "count": 65532,
      "max": [
        0.9999331831932068,
        0.9998652935028076,
        0.9998452067375183
      ],
      "min": [
        -0.9999881982803345,
        -0.9999926090240479,
        -0.9999620914459229
      ],
      "type": "VEC3"
    },
    {
      "bufferView": 1,
      "byteOffset": 524256,
      "componentType": 5126,
      "count": 65532,
      "max": [
        0.993409276008606,
        0.9999688863754272
      ],
      "min": [
        3.834200106211938e-05,
        0.0038594650104641914
      ],
      "type": "VEC2"
    },
    {
      "bufferView": 0,
      "byteOffset": 1227828,
      "componentType": 5125,
      "count": 275682,
      "type": "SCALAR"
    },
    {
      "bufferView": 2,
      "byteOffset": 3145536,
      "componentType": 5126,
      "count": 65532,
      "max": [
        3.954340934753418,
        -3.312203884124756,
        3.3281452655792236
      ],
      "min": [
        -5.291765213012695,
        -12.478002548217773,
        -1.3902289867401123
      ],
      "type": "VEC3"
    },
    {
      "bufferView": 2,
      "byteOffset": 3931920,
      "componentType": 5126,
      "count": 65532,
      "max": [
        0.9999766945838928,
        0.9999834895133972,
        0.9999891519546509
      ],
      "min": [
        -0.9999762177467346,
        -0.9999324083328247,
        -0.9999943375587463
      ],
      "type": "VEC3"
    },
    {
      "bufferView": 1,
      "byteOffset": 1048512,
      "componentType": 5126,
      "count": 65532,
      "max": [
        1.0003013610839844,
        1.0000873804092407
      ],
      "min": [
        0.0001782040053512901,
        0.0047321198508143425
      ],
      "type": "VEC2"
    },
    {
      "bufferView": 0,
      "byteOffset": 2330556,
      "componentType": 5125,
      "count": 275652,
      "type": "SCALAR"
    },
    {
      "bufferView": 2,
      "byteOffset": 4718304,
      "componentType": 5126,
      "count": 65532,
      "max": [
        4.25522518157959,
        -4.108118057250977,
        3.1308422088623047
      ],
      "min": [
        -5.4215593338012695,
        -11.696415901184082,
        -0.4139159917831421
      ],
      "type": "VEC3"
    },
    {
      "bufferView": 2,
      "byteOffset": 5504688,
      "componentType": 5126,
      "count": 65532,
      "max": [
        0.9998780488967896,
        0.9999951124191284,
        0.9998615384101868
      ],
      "min": [
        -0.999984860420227,
        -0.9997585415840149,
        -0.9999939203262329
      ],
      "type": "VEC3"
    },
    {
      "bufferView": 1,
      "byteOffset": 1572768,
      "componentType": 5126,
      "count": 65532,
      "max": [
        0.9947852492332458,
        0.9999411702156067
      ],
      "min": [
        0.00021403099526651204,
        0.0038099470548331738
      ],
      "type": "VEC2"
    },
    {
      "bufferView": 0,
      "byteOffset": 3433164,
      "componentType": 5125,
      "count": 279225,
      "type": "SCALAR"
    },
    {
      "bufferView": 2,
      "byteOffset": 6291072,
      "componentType": 5126,
      "count": 65532,
      "max": [
        4.331881523132324,
        -5.596768379211426,
        2.763979434967041
      ],
      "min": [
        -5.109878063201904,
        -12.502116203308105,
        -0.36561015248298645
      ],
      "type": "VEC3"
    },
    {
      "bufferView": 2,
      "byteOffset": 7077456,
      "componentType": 5126,
      "count": 65532,
      "max": [
        0.9999737739562988,
        0.9999951124191284,
        0.9994014501571655
      ],
      "min": [
        -0.9998766779899597,
        -0.999912440776825,
        -0.9999997615814209
      ],
      "type": "VEC3"
    },
    {
      "bufferView": 1,
      "byteOffset": 2097024,
      "componentType": 5126,
      "count": 65532,
      "max": [
        0.9965308308601379,
        1.0005156993865967
      ],
      "min": [
        0.00026170999626629055,
        0.0033563231118023396
      ],
      "type": "VEC2"
    },
    {
      "bufferView": 0,
      "byteOffset": 4550064,
      "componentType": 5125,
      "count": 286740,
      "type": "SCALAR"
    },
    {
      "bufferView": 2,
      "byteOffset": 7863840,
      "componentType": 5126,
      "count": 65532,
      "max": [
        4.331639289855957,
        -3.1975836753845215,
        3.3281452655792236
      ],
      "min": [
        -5.4215593338012695,
        -12.481912612915039,
        -3.167341470718384
      ],
      "type": "VEC3"
    },
    {
      "bufferView": 2,
      "byteOffset": 8650224,
      "componentType": 5126,
      "count": 65532,
      "max": [
        0.9999534487724304,
        0.9999961256980896,
        0.9999998211860657
      ],
      "min": [
        -0.9999855160713196,
        -0.9999905228614807,
        -0.9999942779541016
      ],
      "type": "VEC3"
    },
    {
      "bufferView": 1,
      "byteOffset": 2621280,
      "componentType": 5126,
      "count": 65532,
      "max": [
        1.001238226890564,
        1.007117748260498
      ],
      "min": [
        -0.004976208787411451,
        0.0070014409720897675
      ],
      "type": "VEC2"
    },
    {
      "bufferView": 0,
      "byteOffset": 5697024,
      "componentType": 5125,
      "count": 210183,
      "type": "SCALAR"
    },
    {
      "bufferView": 2,
      "byteOffset": 9436608,
      "componentType": 5126,
      "count": 65532,
      "max": [
        4.112372398376465,
        -3.196140766143799,
        3.321953535079956
      ],
      "min": [
        -5.375977516174316,
        -11.397754669189453,
        -0.8858730792999268
      ],
      "type": "VEC3"
    },
    {
      "bufferView": 2,
      "byteOffset": 10222992,
      "componentType": 5126,
      "count": 65532,
      "max": [
        0.9999306797981262,
        0.9999971389770508,
        0.9999412894248962
      ],
      "min": [
        -0.9999853372573853,
        -0.9997451305389404,
        -0.9999931454658508
      ],
      "type": "VEC3"
    },
    {
      "bufferView": 1,
      "byteOffset": 3145536,
      "componentType": 5126,
      "count": 65532,
      "max": [
        0.9958347082138062,
        0.9996817111968994
      ],
      "min": [
        0.00018120500317309052,
        0.010587196797132492
      ],
      "type": "VEC2"
    },
    {
      "bufferView": 0,
      "byteOffset": 6537756,
      "componentType": 5125,
      "count": 283497,
      "type": "SCALAR"
    },
    {
      "bufferView": 2,
      "byteOffset": 11009376,
      "componentType": 5126,
      "count": 63976,
      "max": [
        4.013075828552246,
        -3.2058677673339844,
        3.1926522254943848
      ],
      "min": [
        -3.3298752307891846,
        -11.172368049621582,
        -1.1670804023742676
      ],
      "type": "VEC3"
    },
    {
      "bufferView": 2,
      "byteOffset": 11777088,
      "componentType": 5126,
      "count": 63976,
      "max": [
        0.9999306797981262,
        0.9999849200248718,
        0.9999912977218628
      ],
      "min": [
        -0.9999853372573853,
        -0.9998180866241455,
        -0.9999575018882751
      ],
      "type": "VEC3"
    },
    {
      "bufferView": 1,
      "byteOffset": 3669792,
      "componentType": 5126,
      "count": 63976,
      "max": [
        0.9967077970504761,
        1.017488956451416
      ],
      "min": [
        7.930099673103541e-05,
        0.004030752927064896
      ],
      "type": "VEC2"
    },
    {
      "bufferView": 0,
      "byteOffset": 7671744,
      "componentType": 5125,
      "count": 222003,
      "type": "SCALAR"
    }
  ],
  "asset": {
    "extras": {
      "author": "Nikitos & 3130 (https://sketchfab.com/vrcityphoto)",
      "license": "CC-BY-4.0 (http://creativecommons.org/licenses/by/4.0/)",
      "source": "https://sketchfab.com/3d-models/grill-852df719f1c34bd7b93336af9042e96d",
      "title": "GRILL"
    },
    "generator": "Sketchfab-12.68.0",
    "version": "2.0"
  },
  "bufferViews": [
    {
      "buffer": 0,
      "byteLength": 8559756,
      "name": "floatBufferViews",
      "target": 34963
    },
    {
      "buffer": 0,
      "byteLength": 4181600,
      "byteOffset": 8559756,
      "byteStride": 8,
      "name": "floatBufferViews",
      "target": 34962
    },
    {
      "buffer": 0,
      "byteLength": 12544800,
      "byteOffset": 12741356,
      "byteStride": 12,
      "name": "floatBufferViews",
      "target": 34962
    }
  ],
  "buffers": [
    {
      "byteLength": 25286156,
      "uri": "scene.bin"
    }
  ],
  "extensionsUsed": [
    "KHR_materials_unlit"
  ],
  "images": [
    {
      "uri": "textures/GRILL.1001_baseColor.jpeg"
    }
  ],
  "materials": [
    {
      "doubleSided": true,
      "extensions": {
        "KHR_materials_unlit": {}
      },
      "name": "GRILL.1001",
      "pbrMetallicRoughness": {
        "baseColorTexture": {
          "index": 0
        },
        "metallicFactor": 0.0
      }
    }
  ],
  "meshes": [
    {
      "name": "Object_0",
      "primitives": [
        {
          "attributes": {
            "NORMAL": 1,
            "POSITION": 0,
            "TEXCOORD_0": 2
          },
          "indices": 3,
          "material": 0,
          "mode": 4
        }
      ]
    },
    {
      "name": "Object_1",
      "primitives": [
        {
          "attributes": {
            "NORMAL": 5,
            "POSITION": 4,
            "TEXCOORD_0": 6
          },
          "indices": 7,
          "material": 0,
          "mode": 4
        }
      ]
    },
    {
      "name": "Object_2",
      "primitives": [
        {
          "attributes": {
            "NORMAL": 9,
            "POSITION": 8,
            "TEXCOORD_0": 10
          },
          "indices": 11,
          "material": 0,
          "mode": 4
        }
      ]
    },
    {
      "name": "Object_3",
      "primitives": [
        {
          "attributes": {
            "NORMAL": 13,
            "POSITION": 12,
            "TEXCOORD_0": 14
          },
          "indices": 15,
          "material": 0,
          "mode": 4
        }
      ]
    },
    {
      "name": "Object_4",
      "primitives": [
        {
          "attributes": {
            "NORMAL": 17,
            "POSITION": 16,
            "TEXCOORD_0": 18
          },
          "indices": 19,
          "material": 0,
          "mode": 4
        }
      ]
    },
    {
      "name": "Object_5",
      "primitives": [
        {
          "attributes": {
            "NORMAL": 21,
            "POSITION": 20,
            "TEXCOORD_0": 22
          },
          "indices": 23,
          "material": 0,
          "mode": 4
        }
      ]
    },
    {
      "name": "Object_6",
      "primitives": [
        {
          "attributes": {
            "NORMAL": 25,
            "POSITION": 24,
            "TEXCOORD_0": 26
          },
          "indices": 27,
          "material": 0,
          "mode": 4
        }
      ]
    },
    {
      "name": "Object_7",
      "primitives": [
        {
          "attributes": {
            "NORMAL": 29,
            "POSITION": 28,
            "TEXCOORD_0": 30
          },
          "indices": 31,
          "material": 0,
          "mode": 4
        }
      ]
    }
  ],
  "nodes": [
    {
      "children": [
        1
      ],
      "matrix": [
        0.9995743632316589,
        0.028934946283698082,
        -0.003717147279530757,
        0.0,
        -0.00495493970811367,
        0.29395937919616677,
        0.9558050632476808,
        0.0,
        0.028748858720064163,
        -0.9553798437118531,
        0.2939776480197904,
        0.0,
        -0.04143538698554039,
        2.4803121089935267,
        15.32565689086914,
        1.0
      ],
      "name": "Sketchfab_model"
    },
    {
      "children": [
        2,
        3,
        4,
        5,
        6,
        7,
        8,
        9
      ],
      "name": "GRILL.obj.cleaner.materialmerger.gles"
    },
    {
      "mesh": 0,
      "name": "Object_2"
    },
    {
      "mesh": 1,
      "name": "Object_3"
    },
    {
      "mesh": 2,
      "name": "Object_4"
    },
    {
      "mesh": 3,
      "name": "Object_5"
    },
    {
      "mesh": 4,
      "name": "Object_6"
    },
    {
      "mesh": 5,
      "name": "Object_7"
    },
    {
      "mesh": 6,
      "name": "Object_8"
    },
    {
      "mesh": 7,
      "name": "Object_9"
    }
  ],
  "samplers": [
    {
      "magFilter": 9729,
      "minFilter": 9987,
      "wrapS": 10497,
      "wrapT": 10497
    }
  ],
  "scene": 0,
  "scenes": [
    {
      "name": "Sketchfab_Scene",
      "nodes": [
        0
      ]
    }
  ],
  "textures": [
    {
      "sampler": 0,
      "source": 0
    }
  ]
}
