{
  "accessors": [
    {
      "bufferView": 2,
      "componentType": 5126,
      "count": 65532,
      "max": [
        0.9985188841819763,
        2.1635899543762207,
        1.1013022661209106
      ],
      "min": [
        -0.9025824069976807,
        0.006811450235545635,
        -1.0868366956710815
      ],
      "type": "VEC3"
    },
    {
      "bufferView": 2,
      "byteOffset": 786384,
      "componentType": 5126,
      "count": 65532,
      "max": [
        0.3351075053215027,
        0.6544232368469238,
        0.9994184374809265
      ],
      "min": [
        -0.9970446228981018,
        -0.9999983310699463,
        -0.9999932050704956
      ],
      "type": "VEC3"
    },
    {
      "bufferView": 1,
      "componentType": 5126,
      "count": 65532,
      "max": [
        0.9921877384185791,
        0.9931885600090027
      ],
      "min": [
        0.0,
        -1.1837100982666016
      ],
      "type": "VEC2"
    },
    {
      "bufferView": 0,
      "componentType": 5125,
      "count": 381276,
      "type": "SCALAR"
    },
    {
      "bufferView": 2,
      "byteOffset": 1572768,
      "componentType": 5126,
      "count": 65532,
      "max": [
        0.9941830039024353,
        2.1635892391204834,
        0.9925723671913147
      ],
      "min": [
        -0.9945312142372131,
        0.006811450235545635,
        -1.085128664970398
      ],
      "type": "VEC3"
    },
    {
      "bufferView": 2,
      "byteOffset": 2359152,
      "componentType": 5126,
      "count": 65532,
      "max": [
        0.8571217060089111,
        0.6544232368469238,
        0.9851036667823792
      ],
      "min": [
        -0.9974037408828735,
        -0.9999983310699463,
        -0.855380654335022
      ],
      "type": "VEC3"
    },
    {
      "bufferView": 1,
      "byteOffset": 524256,
      "componentType": 5126,
      "count": 65532,
      "max": [
        1.000000238418579,
        0.9931885600090027
      ],
      "min": [
        0.1894531399011612,
        -1.1837098598480225
      ],
      "type": "VEC2"
    },
    {
      "bufferView": 0,
      "byteOffset": 1525104,
      "componentType": 5125,
      "count": 381531,
      "type": "SCALAR"
    },
    {
      "bufferView": 2,
      "byteOffset": 3145536,
      "componentType": 5126,
      "count": 65532,
      "max": [
        0.9974053502082825,
        2.1635894775390625,
        1.0378161668777466
      ],
      "min": [
        -1.0425266027450562,
        0.027487479150295258,
        -1.0574769973754883
      ],
      "type": "VEC3"
    },
    {
      "bufferView": 2,
      "byteOffset": 3931920,
      "componentType": 5126,
      "count": 65532,
      "max": [
        0.9988963007926941,
        0.527811586856842,
        0.9998236298561096
      ],
      "min": [
        -0.9987229704856873,
        -1.0,
        -0.9958944916725159
      ],
      "type": "VEC3"
    },
    {
      "bufferView": 1,
      "byteOffset": 1048512,
      "componentType": 5126,
      "count": 65532,
      "max": [
        1.000000238418579,
        1.0273467302322388
      ],
      "min": [
        0.2812500596046448,
        -1.1837098598480225
      ],
      "type": "VEC2"
    },
    {
      "bufferView": 0,
      "byteOffset": 3051228,
      "componentType": 5125,
      "count": 374037,
      "type": "SCALAR"
    },
    {
      "bufferView": 2,
      "byteOffset": 4718304,
      "componentType": 5126,
      "count": 65532,
      "max": [
        0.4788751006126404,
        2.1635897159576416,
        0.8212964534759521
      ],
      "min": [
        -1.1013022661209106,
        0.293213427066803,
        -1.0569727420806885
      ],
      "type": "VEC3"
    },
    {
      "bufferView": 2,
      "byteOffset": 5504688,
      "componentType": 5126,
      "count": 65532,
      "max": [
        0.9999860525131226,
        0.5279112458229065,
        0.9999932050704956
      ],
      "min": [
        -0.9985749125480652,
        -0.9999983310699463,
        -0.3403192460536957
      ],
      "type": "VEC3"
    },
    {
      "bufferView": 1,
      "byteOffset": 1572768,
      "componentType": 5126,
      "count": 65532,
      "max": [
        1.0,
        0.7296682596206665
      ],
      "min": [
        0.43457043170928955,
        -1.1837100982666016
      ],
      "type": "VEC2"
    },
    {
      "bufferView": 0,
      "byteOffset": 4547376,
      "componentType": 5125,
      "count": 375621,
      "type": "SCALAR"
    },
    {
      "bufferView": 2,
      "byteOffset": 6291072,
      "componentType": 5126,
      "count": 65532,
      "max": [
        1.0512396097183228,
        2.1635897159576416,
        0.7301828265190125
      ],
      "min": [
        -0.901900589466095,
        0.027487479150295258,
        -1.1013022661209106
      ],
      "type": "VEC3"
    },
    {
      "bufferView": 2,
      "byteOffset": 7077456,
      "componentType": 5126,
      "count": 65532,
      "max": [
        0.3298097848892212,
        0.5676993727684021,
        0.9999865293502808
      ],
      "min": [
        -0.9999762773513794,
        -1.0,
        -0.9644741415977478
      ],
      "type": "VEC3"
    },
    {
      "bufferView": 1,
      "byteOffset": 2097024,
      "componentType": 5126,
      "count": 65532,
      "max": [
        0.9375,
        1.0273467302322388
      ],
      "min": [
        0.1259765923023224,
        -1.1837100982666016
      ],
      "type": "VEC2"
    },
    {
      "bufferView": 0,
      "byteOffset": 6049860,
      "componentType": 5125,
      "count": 381744,
      "type": "SCALAR"
    },
    {
      "bufferView": 2,
      "byteOffset": 7863840,
      "componentType": 5126,
      "count": 65532,
      "max": [
        1.0574769973754883,
        2.1635897159576416,
        1.041524887084961
      ],
      "min": [
        -0.8318973183631897,
        0.027487479150295258,
        -1.0952163934707642
      ],
      "type": "VEC3"
    },
    {
      "bufferView": 2,
      "byteOffset": 8650224,
      "componentType": 5126,
      "count": 65532,
      "max": [
        0.653377890586853,
        0.5677893161773682,
        0.959929883480072
      ],
      "min": [
        -0.9998236298561096,
        -1.0,
        -0.9987229704856873
      ],
      "type": "VEC3"
    },
    {
      "bufferView": 1,
      "byteOffset": 2621280,
      "componentType": 5126,
      "count": 65532,
      "max": [
        0.875,
        1.0273467302322388
      ],
      "min": [
        0.0625,
        -1.1837100982666016
      ],
      "type": "VEC2"
    },
    {
      "bufferView": 0,
      "byteOffset": 7576836,
      "componentType": 5125,
      "count": 368577,
      "type": "SCALAR"
    },
    {
      "bufferView": 2,
      "byteOffset": 9436608,
      "componentType": 5126,
      "count": 65532,
      "max": [
        1.1013022661209106,
        2.1635897159576416,
        0.8592175245285034
      ],
      "min": [
        -0.7694212794303894,
        0.0903891995549202,
        -1.0286463499069214
      ],
      "type": "VEC3"
    },
    {
      "bufferView": 2,
      "byteOffset": 10222992,
      "componentType": 5126,
      "count": 65532,
      "max": [
        0.8289063572883606,
        0.560979962348938,
        0.7887760996818542
      ],
      "min": [
        -0.999987006187439,
        -0.9999983310699463,
        -0.9994184374809265
      ],
      "type": "VEC3"
    },
    {
      "bufferView": 1,
      "byteOffset": 3145536,
      "componentType": 5126,
      "count": 65532,
      "max": [
        0.8125,
        0.9096108078956604
      ],
      "min": [
        0.09375,
        -1.1837100982666016
      ],
      "type": "VEC2"
    },
    {
      "bufferView": 0,
      "byteOffset": 9051144,
      "componentType": 5125,
      "count": 376395,
      "type": "SCALAR"
    },
    {
      "bufferView": 2,
      "byteOffset": 11009376,
      "componentType": 5126,
      "count": 65532,
      "max": [
        1.0992785692214966,
        2.1635897159576416,
        0.8252665400505066
      ],
      "min": [
        -0.4226914942264557,
        0.2932133972644806,
        -0.901900589466095
      ],
      "type": "VEC3"
    },
    {
      "bufferView": 2,
      "byteOffset": 11795760,
      "componentType": 5126,
      "count": 65532,
      "max": [
        0.9987229704856873,
        0.5278253555297852,
        0.3298098146915436
      ],
      "min": [
        -0.9951227307319641,
        -0.9999983310699463,
        -0.9968417882919312
      ],
      "type": "VEC3"
    },
    {
      "bufferView": 1,
      "byteOffset": 3669792,
      "componentType": 5126,
      "count": 65532,
      "max": [
        0.6875,
        0.7296682596206665
      ],
      "min": [
        0.125,
        -1.1837100982666016
      ],
      "type": "VEC2"
    },
    {
      "bufferView": 0,
      "byteOffset": 10556724,
      "componentType": 5125,
      "count": 382389,
      "type": "SCALAR"
    },
    {
      "bufferView": 2,
      "byteOffset": 12582144,
      "componentType": 5126,
      "count": 65532,
      "max": [
        1.053802490234375,
        2.1635897159576416,
        0.8250381350517273
      ],
      "min": [
        -0.022379299625754356,
        0.2932133972644806,
        -0.7694212198257446
      ],
      "type": "VEC3"
    },
    {
      "bufferView": 2,
      "byteOffset": 13368528,
      "componentType": 5126,
      "count": 65532,
      "max": [
        0.9994184374809265,
        -0.03409784659743309,
        0.7531434297561646
      ],
      "min": [
        -0.6785205602645874,
        -0.9999983310699463,
        -0.7708325386047363
      ],
      "type": "VEC3"
    },
    {
      "bufferView": 1,
      "byteOffset": 4194048,
      "componentType": 5126,
      "count": 65532,
      "max": [
        0.5625,
        0.7296682596206665
      ],
      "min": [
        0.1249999925494194,
        -1.1837100982666016
      ],
      "type": "VEC2"
    },
    {
      "bufferView": 0,
      "byteOffset": 12086280,
      "componentType": 5125,
      "count": 385251,
      "type": "SCALAR"
    },
    {
      "bufferView": 2,
      "byteOffset": 14154912,
      "componentType": 5126,
      "count": 65532,
      "max": [
        0.8481617569923401,
        2.1635897159576416,
        1.039279818534851
      ],
      "min": [
        -1.0574769973754883,
        0.2932133972644806,
        -0.5884420871734619
      ],
      "type": "VEC3"
    },
    {
      "bufferView": 2,
      "byteOffset": 14941296,
      "componentType": 5126,
      "count": 65532,
      "max": [
        0.9998006224632263,
        0.5278064012527466,
        0.9047245383262634
      ],
      "min": [
        -0.6529122591018677,
        -0.9999983310699463,
        -0.996454656124115
      ],
      "type": "VEC3"
    },
    {
      "bufferView": 1,
      "byteOffset": 4718304,
      "componentType": 5126,
      "count": 65532,
      "max": [
        1.000000238418579,
        0.7368768453598022
      ],
      "min": [
        0.03125,
        -1.1837100982666016
      ],
      "type": "VEC2"
    },
    {
      "bufferView": 0,
      "byteOffset": 13627284,
      "componentType": 5125,
      "count": 377958,
      "type": "SCALAR"
    },
    {
      "bufferView": 2,
      "byteOffset": 15727680,
      "componentType": 5126,
      "count": 65532,
      "max": [
        -0.06788270175457001,
        2.1635897159576416,
        1.0992203950881958
      ],
      "min": [
        -1.0572001934051514,
        0.293213427066803,
        -0.5675691962242126
      ],
      "type": "VEC3"
    },
    {
      "bufferView": 2,
      "byteOffset": 16514064,
      "componentType": 5126,
      "count": 65532,
      "max": [
        0.9999762773513794,
        0.5278262495994568,
        0.996705174446106
      ],
      "min": [
        -0.5859736800193787,
        -0.9999983310699463,
        -0.9980869889259338
      ],
      "type": "VEC3"
    },
    {
      "bufferView": 1,
      "byteOffset": 5242560,
      "componentType": 5126,
      "count": 65532,
      "max": [
        1.000000238418579,
        0.7296682596206665
      ],
      "min": [
        0.6689454317092896,
        -1.1837100982666016
      ],
      "type": "VEC2"
    },
    {
      "bufferView": 0,
      "byteOffset": 15139116,
      "componentType": 5125,
      "count": 385176,
      "type": "SCALAR"
    },
    {
      "bufferView": 2,
      "byteOffset": 17300448,
      "componentType": 5126,
      "count": 65532,
      "max": [
        0.9163103699684143,
        2.1635897159576416,
        0.8945058584213257
      ],
      "min": [
        -0.992720365524292,
        0.1687755286693573,
        -1.0755317211151123
      ],
      "type": "VEC3"
    },
    {
      "bufferView": 2,
      "byteOffset": 18086832,
      "componentType": 5126,
      "count": 65532,
      "max": [
        0.9903092384338379,
        0.5277962684631348,
        0.9995162487030029
      ],
      "min": [
        -0.9994184374809265,
        -0.9999983310699463,
        -0.9903092384338379
      ],
      "type": "VEC3"
    },
    {
      "bufferView": 1,
      "byteOffset": 5766816,
      "componentType": 5126,
      "count": 65532,
      "max": [
        1.000000238418579,
        0.8319302201271057
      ],
      "min": [
        0.2832031846046448,
        -1.1837100982666016
      ],
      "type": "VEC2"
    },
    {
      "bufferView": 0,
      "byteOffset": 16679820,
      "componentType": 5125,
      "count": 360300,
      "type": "SCALAR"
    },
    {
      "bufferView": 2,
      "byteOffset": 18873216,
      "componentType": 5126,
      "count": 65532,
      "max": [
        1.0569727420806885,
        2.1635897159576416,
        0.9184852838516235
      ],
      "min": [
        -1.0845659971237183,
        0.23032179474830627,
        -1.09465754032135
      ],
      "type": "VEC3"
    },
    {
      "bufferView": 2,
      "byteOffset": 19659600,
      "componentType": 5126,
      "count": 65532,
      "max": [
        0.9999932050704956,
        0.5278290510177612,
        0.9997740387916565
      ],
      "min": [
        -0.9999932050704956,
        -0.9999620914459229,
        -0.9986180663108826
      ],
      "type": "VEC3"
    },
    {
      "bufferView": 1,
      "byteOffset": 6291072,
      "componentType": 5126,
      "count": 65532,
      "max": [
        0.9394533038139343,
        0.7696782350540161
      ],
      "min": [
        0.158203125,
        -1.1837100982666016
      ],
      "type": "VEC2"
    },
    {
      "bufferView": 0,
      "byteOffset": 18121020,
      "componentType": 5125,
      "count": 367335,
      "type": "SCALAR"
    },
    {
      "bufferView": 2,
      "byteOffset": 20445984,
      "componentType": 5126,
      "count": 65532,
      "max": [
        1.0572319030761719,
        2.1618950366973877,
        1.0271779298782349
      ],
      "min": [
        -1.099647045135498,
        0.006811450235545635,
        -1.0992785692214966
      ],
      "type": "VEC3"
    },
    {
      "bufferView": 2,
      "byteOffset": 21232368,
      "componentType": 5126,
      "count": 65532,
      "max": [
        0.9992322325706482,
        0.6532874703407288,
        0.9994522929191589
      ],
      "min": [
        -0.9992322325706482,
        -1.0,
        -0.9718743562698364
      ],
      "type": "VEC3"
    },
    {
      "bufferView": 1,
      "byteOffset": 6815328,
      "componentType": 5126,
      "count": 65532,
      "max": [
        0.8916018605232239,
        1.0273467302322388
      ],
      "min": [
        0.0,
        -1.1659886837005615
      ],
      "type": "VEC2"
    },
    {
      "bufferView": 0,
      "byteOffset": 19590360,
      "componentType": 5125,
      "count": 371397,
      "type": "SCALAR"
    },
    {
      "bufferView": 2,
      "byteOffset": 22018752,
      "componentType": 5126,
      "count": 24279,
      "max": [
        0.9880298972129822,
        2.1635897159576416,
        1.0245108604431152
      ],
      "min": [
        -1.095755934715271,
        0.03171764314174652,
        -1.0833452939987183
      ],
      "type": "VEC3"
    },
    {
      "bufferView": 2,
      "byteOffset": 22310100,
      "componentType": 5126,
      "count": 24279,
      "max": [
        0.9943205714225769,
        -0.08450174331665039,
        0.7271828651428223
      ],
      "min": [
        -0.5267708897590637,
        -0.9999620914459229,
        -0.9693336486816406
      ],
      "type": "VEC3"
    },
    {
      "bufferView": 1,
      "byteOffset": 7339584,
      "componentType": 5126,
      "count": 24279,
      "max": [
        0.9990234375,
        1.0212068557739258
      ],
      "min": [
        0.20214848220348358,
        -1.1831555366516113
      ],
      "type": "VEC2"
    },
    {
      "bufferView": 0,
      "byteOffset": 21075948,
      "componentType": 5125,
      "count": 137733,
      "type": "SCALAR"
    }
  ],
  "asset": {
    "extras": {
      "author": "okilsketchfab (https://sketchfab.com/okilsketchfab)",
      "license": "CC-BY-4.0 (http://creativecommons.org/licenses/by/4.0/)",
      "source": "https://sketchfab.com/3d-models/plastic-glass-e11aef5942464f59bc1364548613c407",
      "title": "Plastic Glass"
    },
    "generator": "Sketchfab-15.37.0",
    "version": "2.0"
  },
  "bufferViews": [
    {
      "buffer": 0,
      "byteLength": 21626880,
      "name": "floatBufferViews",
      "target": 34963
    },
    {
      "buffer": 0,
      "byteLength": 7533816,
      "byteOffset": 21626880,
      "byteStride": 8,
      "name": "floatBufferViews",
      "target": 34962
    },
    {
      "buffer": 0,
      "byteLength": 22601448,
      "byteOffset": 29160696,
      "byteStride": 12,
      "name": "floatBufferViews",
      "target": 34962
    }
  ],
  "buffers": [
    {
      "byteLength": 51762144,
      "uri": "scene.bin"
    }
  ],
  "extensionsUsed": [
    "KHR_materials_transmission"
  ],
  "materials": [
    {
      "alphaMode": "BLEND",
      "doubleSided": true,
      "extensions": {
        "KHR_materials_transmission": {
          "transmissionFactor": 1.0
        }
      },
      "name": "Material.001",
      "pbrMetallicRoughness": {
        "baseColorFactor": [
          0.8,
          0.8,
          0.8,
          0.25
        ],
        "metallicFactor": 0.0,
        "roughnessFactor": 0.0
      }
    }
  ],
  "meshes": [
    {
      "name": "Object_0",
      "primitives": [
        {
          "attributes": {
            "NORMAL": 1,
            "POSITION": 0,
            "TEXCOORD_0": 2
          },
          "indices": 3,
          "material": 0,
          "mode": 4
        }
      ]
    },
    {
      "name": "Object_1",
      "primitives": [
        {
          "attributes": {
            "NORMAL": 5,
            "POSITION": 4,
            "TEXCOORD_0": 6
          },
          "indices": 7,
          "material": 0,
          "mode": 4
        }
      ]
    },
    {
      "name": "Object_2",
      "primitives": [
        {
          "attributes": {
            "NORMAL": 9,
            "POSITION": 8,
            "TEXCOORD_0": 10
          },
          "indices": 11,
          "material": 0,
          "mode": 4
        }
      ]
    },
    {
      "name": "Object_3",
      "primitives": [
        {
          "attributes": {
            "NORMAL": 13,
            "POSITION": 12,
            "TEXCOORD_0": 14
          },
          "indices": 15,
          "material": 0,
          "mode": 4
        }
      ]
    },
    {
      "name": "Object_4",
      "primitives": [
        {
          "attributes": {
            "NORMAL": 17,
            "POSITION": 16,
            "TEXCOORD_0": 18
          },
          "indices": 19,
          "material": 0,
          "mode": 4
        }
      ]
    },
    {
      "name": "Object_5",
      "primitives": [
        {
          "attributes": {
            "NORMAL": 21,
            "POSITION": 20,
            "TEXCOORD_0": 22
          },
          "indices": 23,
          "material": 0,
          "mode": 4
        }
      ]
    },
    {
      "name": "Object_6",
      "primitives": [
        {
          "attributes": {
            "NORMAL": 25,
            "POSITION": 24,
            "TEXCOORD_0": 26
          },
          "indices": 27,
          "material": 0,
          "mode": 4
        }
      ]
    },
    {
      "name": "Object_7",
      "primitives": [
        {
          "attributes": {
            "NORMAL": 29,
            "POSITION": 28,
            "TEXCOORD_0": 30
          },
          "indices": 31,
          "material": 0,
          "mode": 4
        }
      ]
    },
    {
      "name": "Object_8",
      "primitives": [
        {
          "attributes": {
            "NORMAL": 33,
            "POSITION": 32,
            "TEXCOORD_0": 34
          },
          "indices": 35,
          "material": 0,
          "mode": 4
        }
      ]
    },
    {
      "name": "Object_9",
      "primitives": [
        {
          "attributes": {
            "NORMAL": 37,
            "POSITION": 36,
            "TEXCOORD_0": 38
          },
          "indices": 39,
          "material": 0,
          "mode": 4
        }
      ]
    },
    {
      "name": "Object_10",
      "primitives": [
        {
          "attributes": {
            "NORMAL": 41,
            "POSITION": 40,
            "TEXCOORD_0": 42
          },
          "indices": 43,
          "material": 0,
          "mode": 4
        }
      ]
    },
    {
      "name": "Object_11",
      "primitives": [
        {
          "attributes": {
            "NORMAL": 45,
            "POSITION": 44,
            "TEXCOORD_0": 46
          },
          "indices": 47,
          "material": 0,
          "mode": 4
        }
      ]
    },
    {
      "name": "Object_12",
      "primitives": [
        {
          "attributes": {
            "NORMAL": 49,
            "POSITION": 48,
            "TEXCOORD_0": 50
          },
          "indices": 51,
          "material": 0,
          "mode": 4
        }
      ]
    },
    {
      "name": "Object_13",
      "primitives": [
        {
          "attributes": {
            "NORMAL": 53,
            "POSITION": 52,
            "TEXCOORD_0": 54
          },
          "indices": 55,
          "material": 0,
          "mode": 4
        }
      ]
    },
    {
      "name": "Object_14",
      "primitives": [
        {
          "attributes": {
            "NORMAL": 57,
            "POSITION": 56,
            "TEXCOORD_0": 58
          },
          "indices": 59,
          "material": 0,
          "mode": 4
        }
      ]
    }
  ],
  "nodes": [
    {
      "children": [
        1
      ],
      "matrix": [
        1.0,
        0.0,
        0.0,
        0.0,
        0.0,
        2.220446049250313e-16,
        -1.0,
        0.0,
        0.0,
        1.0,
        2.220446049250313e-16,
        0.0,
        0.0,
        0.0,
        0.0,
        1.0
      ],
      "name": "Sketchfab_model"
    },
    {
      "children": [
        2
      ],
      "name": "root"
    },
    {
      "children": [
        3
      ],
      "matrix": [
        1.0,
        0.0,
        0.0,
        0.0,
        0.0,
        2.220446049250313e-16,
        1.0,
        0.0,
        0.0,
        -1.0,
        2.220446049250313e-16,
        0.0,
        0.0,
        0.0,
        0.0,
        1.0
      ],
      "name": "GLTF_SceneRootNode"
    },
    {
      "children": [
        4,
        5,
        6,
        7,
        8,
        9,
        10,
        11,
        12,
        13,
        14,
        15,
        16,
        17,
        18
      ],
      "name": "Circle_0"
    },
    {
      "mesh": 0,
      "name": "Object_4"
    },
    {
      "mesh": 1,
      "name": "Object_5"
    },
    {
      "mesh": 2,
      "name": "Object_6"
    },
    {
      "mesh": 3,
      "name": "Object_7"
    },
    {
      "mesh": 4,
      "name": "Object_8"
    },
    {
      "mesh": 5,
      "name": "Object_9"
    },
    {
      "mesh": 6,
      "name": "Object_10"
    },
    {
      "mesh": 7,
      "name": "Object_11"
    },
    {
      "mesh": 8,
      "name": "Object_12"
    },
    {
      "mesh": 9,
      "name": "Object_13"
    },
    {
      "mesh": 10,
      "name": "Object_14"
    },
    {
      "mesh": 11,
      "name": "Object_15"
    },
    {
      "mesh": 12,
      "name": "Object_16"
    },
    {
      "mesh": 13,
      "name": "Object_17"
    },
    {
      "mesh": 14,
      "name": "Object_18"
    }
  ],
  "scene": 0,
  "scenes": [
    {
      "name": "Sketchfab_Scene",
      "nodes": [
        0
      ]
    }
  ]
}
